<?xml version="1.0" encoding="UTF-8" standalone="no"?>
<!DOCTYPE svg PUBLIC "-//W3C//DTD SVG 1.1//EN"
 "http://www.w3.org/Graphics/SVG/1.1/DTD/svg11.dtd">
<!-- Generated by graphviz version 2.47.0 (20210316.0004)
 -->
<!-- Title: dependencies Pages: 1 -->
<svg width="1010pt" height="211pt"
 viewBox="0.00 0.00 1010.00 211.00" xmlns="http://www.w3.org/2000/svg" xmlns:xlink="http://www.w3.org/1999/xlink">
<g id="graph0" class="graph" transform="scale(1 1) rotate(0) translate(4 207)">
<title>dependencies</title>
<polygon fill="white" stroke="transparent" points="-4,4 -4,-207 1006,-207 1006,4 -4,4"/>
<text text-anchor="start" x="480.01" y="-42.4" font-family="Times-12" font-weight="bold" font-size="14.00">Legend</text>
<polygon fill="#ffffb3" stroke="transparent" points="267,-10 267,-30 287,-30 287,-10 267,-10"/>
<text text-anchor="start" x="290.63" y="-15.4" font-family="Times-12" font-size="14.00"> &#160;Declarations</text>
<polygon fill="#8dd3c7" stroke="transparent" points="380,-10 380,-30 400,-30 400,-10 380,-10"/>
<text text-anchor="start" x="403.73" y="-15.4" font-family="Times-12" font-size="14.00"> &#160;Module</text>
<polygon fill="#80b1d3" stroke="transparent" points="466,-10 466,-30 486,-30 486,-10 466,-10"/>
<text text-anchor="start" x="489.78" y="-15.4" font-family="Times-12" font-size="14.00"> &#160;Bootstrap</text>
<polygon fill="#fdb462" stroke="transparent" points="563,-10 563,-30 583,-30 583,-10 563,-10"/>
<text text-anchor="start" x="586.67" y="-15.4" font-family="Times-12" font-size="14.00"> &#160;Providers</text>
<polygon fill="#fb8072" stroke="transparent" points="659,-10 659,-30 679,-30 679,-10 659,-10"/>
<text text-anchor="start" x="682.73" y="-15.4" font-family="Times-12" font-size="14.00"> &#160;Exports</text>
<g id="clust1" class="cluster">
<title>cluster_AssistantsModule</title>
<polygon fill="none" stroke="black" stroke-dasharray="1,5" points="8,-70 8,-195 994,-195 994,-70 8,-70"/>
</g>
<g id="clust6" class="cluster">
<title>cluster_AssistantsModule_providers</title>
<polygon fill="none" stroke="black" points="651,-78 651,-130 986,-130 986,-78 651,-78"/>
</g>
<g id="clust3" class="cluster">
<title>cluster_AssistantsModule_imports</title>
<polygon fill="none" stroke="black" points="16,-78 16,-130 643,-130 643,-78 16,-78"/>
</g>
<!-- ConfigureModule -->
<g id="node1" class="node">
<title>ConfigureModule</title>
<polygon fill="#8dd3c7" stroke="black" points="635.31,-122 632.31,-126 611.31,-126 608.31,-122 518.69,-122 518.69,-86 635.31,-86 635.31,-122"/>
<text text-anchor="middle" x="577" y="-99.8" font-family="Times,serif" font-size="14.00">ConfigureModule</text>
</g>
<!-- AssistantsModule -->
<g id="node4" class="node">
<title>AssistantsModule</title>
<polygon fill="#8dd3c7" stroke="black" points="635.32,-187 632.32,-191 611.32,-191 608.32,-187 518.68,-187 518.68,-151 635.32,-151 635.32,-187"/>
<text text-anchor="middle" x="577" y="-164.8" font-family="Times,serif" font-size="14.00">AssistantsModule</text>
</g>
<!-- ConfigureModule&#45;&gt;AssistantsModule -->
<g id="edge1" class="edge">
<title>ConfigureModule&#45;&gt;AssistantsModule</title>
<path fill="none" stroke="black" d="M577,-122.11C577,-122.11 577,-140.99 577,-140.99"/>
<polygon fill="black" stroke="black" points="573.5,-140.99 577,-150.99 580.5,-140.99 573.5,-140.99"/>
</g>
<!-- RelationalAssistantPersistenceModule -->
<g id="node2" class="node">
<title>RelationalAssistantPersistenceModule</title>
<polygon fill="#8dd3c7" stroke="black" points="500.89,-122 497.89,-126 476.89,-126 473.89,-122 269.11,-122 269.11,-86 500.89,-86 500.89,-122"/>
<text text-anchor="middle" x="385" y="-99.8" font-family="Times,serif" font-size="14.00">RelationalAssistantPersistenceModule</text>
</g>
<!-- RelationalAssistantPersistenceModule&#45;&gt;AssistantsModule -->
<g id="edge2" class="edge">
<title>RelationalAssistantPersistenceModule&#45;&gt;AssistantsModule</title>
<path fill="none" stroke="black" d="M385,-122.02C385,-139.37 385,-163 385,-163 385,-163 508.61,-163 508.61,-163"/>
<polygon fill="black" stroke="black" points="508.61,-166.5 518.61,-163 508.61,-159.5 508.61,-166.5"/>
</g>
<!-- RelationalDatasetsPersistenceModule -->
<g id="node3" class="node">
<title>RelationalDatasetsPersistenceModule</title>
<polygon fill="#8dd3c7" stroke="black" points="251.99,-122 248.99,-126 227.99,-126 224.99,-122 24.01,-122 24.01,-86 251.99,-86 251.99,-122"/>
<text text-anchor="middle" x="138" y="-99.8" font-family="Times,serif" font-size="14.00">RelationalDatasetsPersistenceModule</text>
</g>
<!-- RelationalDatasetsPersistenceModule&#45;&gt;AssistantsModule -->
<g id="edge3" class="edge">
<title>RelationalDatasetsPersistenceModule&#45;&gt;AssistantsModule</title>
<path fill="none" stroke="black" d="M138,-122.28C138,-143.32 138,-175 138,-175 138,-175 508.7,-175 508.7,-175"/>
<polygon fill="black" stroke="black" points="508.7,-178.5 518.7,-175 508.7,-171.5 508.7,-178.5"/>
</g>
<!-- AssistantService -->
<g id="node5" class="node">
<title>AssistantService</title>
<ellipse fill="#fdb462" stroke="black" cx="903" cy="-104" rx="75.29" ry="18"/>
<text text-anchor="middle" x="903" y="-99.8" font-family="Times,serif" font-size="14.00">AssistantService</text>
</g>
<!-- AssistantService&#45;&gt;AssistantsModule -->
<g id="edge4" class="edge">
<title>AssistantService&#45;&gt;AssistantsModule</title>
<path fill="none" stroke="black" d="M903,-122.28C903,-143.32 903,-175 903,-175 903,-175 645.28,-175 645.28,-175"/>
<polygon fill="black" stroke="black" points="645.28,-171.5 635.28,-175 645.28,-178.5 645.28,-171.5"/>
</g>
<!-- RetrievalService -->
<g id="node6" class="node">
<title>RetrievalService</title>
<ellipse fill="#fdb462" stroke="black" cx="734" cy="-104" rx="75.27" ry="18"/>
<text text-anchor="middle" x="734" y="-99.8" font-family="Times,serif" font-size="14.00">RetrievalService</text>
</g>
<!-- RetrievalService&#45;&gt;AssistantsModule -->
<g id="edge5" class="edge">
<title>RetrievalService&#45;&gt;AssistantsModule</title>
<path fill="none" stroke="black" d="M734,-122.02C734,-139.37 734,-163 734,-163 734,-163 645.46,-163 645.46,-163"/>
<polygon fill="black" stroke="black" points="645.46,-159.5 635.46,-163 645.46,-166.5 645.46,-159.5"/>
</g>
</g>
</svg>
