<?xml version="1.0" encoding="UTF-8" standalone="no"?>
<!DOCTYPE svg PUBLIC "-//W3C//DTD SVG 1.1//EN"
 "http://www.w3.org/Graphics/SVG/1.1/DTD/svg11.dtd">
<!-- Generated by graphviz version 2.47.0 (20210316.0004)
 -->
<!-- Title: dependencies Pages: 1 -->
<svg width="504pt" height="284pt"
 viewBox="0.00 0.00 504.00 284.00" xmlns="http://www.w3.org/2000/svg" xmlns:xlink="http://www.w3.org/1999/xlink">
<g id="graph0" class="graph" transform="scale(1 1) rotate(0) translate(4 280)">
<title>dependencies</title>
<polygon fill="white" stroke="transparent" points="-4,4 -4,-280 500,-280 500,4 -4,4"/>
<text text-anchor="start" x="227.01" y="-42.4" font-family="Times-12" font-weight="bold" font-size="14.00">Legend</text>
<polygon fill="#ffffb3" stroke="transparent" points="14,-10 14,-30 34,-30 34,-10 14,-10"/>
<text text-anchor="start" x="37.63" y="-15.4" font-family="Times-12" font-size="14.00"> &#160;Declarations</text>
<polygon fill="#8dd3c7" stroke="transparent" points="127,-10 127,-30 147,-30 147,-10 127,-10"/>
<text text-anchor="start" x="150.73" y="-15.4" font-family="Times-12" font-size="14.00"> &#160;Module</text>
<polygon fill="#80b1d3" stroke="transparent" points="213,-10 213,-30 233,-30 233,-10 213,-10"/>
<text text-anchor="start" x="236.78" y="-15.4" font-family="Times-12" font-size="14.00"> &#160;Bootstrap</text>
<polygon fill="#fdb462" stroke="transparent" points="310,-10 310,-30 330,-30 330,-10 310,-10"/>
<text text-anchor="start" x="333.67" y="-15.4" font-family="Times-12" font-size="14.00"> &#160;Providers</text>
<polygon fill="#fb8072" stroke="transparent" points="406,-10 406,-30 426,-30 426,-10 406,-10"/>
<text text-anchor="start" x="429.73" y="-15.4" font-family="Times-12" font-size="14.00"> &#160;Exports</text>
<g id="clust1" class="cluster">
<title>cluster_RelationalAssistantPersistenceModule</title>
<polygon fill="none" stroke="black" stroke-dasharray="1,5" points="116,-70 116,-268 380,-268 380,-70 116,-70"/>
</g>
<g id="clust3" class="cluster">
<title>cluster_RelationalAssistantPersistenceModule_imports</title>
<polygon fill="none" stroke="black" points="124,-78 124,-130 372,-130 372,-78 124,-78"/>
</g>
<g id="clust4" class="cluster">
<title>cluster_RelationalAssistantPersistenceModule_exports</title>
<polygon fill="none" stroke="black" points="174,-208 174,-260 322,-260 322,-208 174,-208"/>
</g>
<!-- ConfigureModule -->
<g id="node1" class="node">
<title>ConfigureModule</title>
<polygon fill="#8dd3c7" stroke="black" points="364.31,-122 361.31,-126 340.31,-126 337.31,-122 247.69,-122 247.69,-86 364.31,-86 364.31,-122"/>
<text text-anchor="middle" x="306" y="-99.8" font-family="Times,serif" font-size="14.00">ConfigureModule</text>
</g>
<!-- RelationalAssistantPersistenceModule -->
<g id="node3" class="node">
<title>RelationalAssistantPersistenceModule</title>
<polygon fill="#8dd3c7" stroke="black" points="363.89,-187 360.89,-191 339.89,-191 336.89,-187 132.11,-187 132.11,-151 363.89,-151 363.89,-187"/>
<text text-anchor="middle" x="248" y="-164.8" font-family="Times,serif" font-size="14.00">RelationalAssistantPersistenceModule</text>
</g>
<!-- ConfigureModule&#45;&gt;RelationalAssistantPersistenceModule -->
<g id="edge1" class="edge">
<title>ConfigureModule&#45;&gt;RelationalAssistantPersistenceModule</title>
<path fill="none" stroke="black" d="M305.77,-122.11C305.77,-122.11 305.77,-140.99 305.77,-140.99"/>
<polygon fill="black" stroke="black" points="302.27,-140.99 305.77,-150.99 309.27,-140.99 302.27,-140.99"/>
</g>
<!-- PrismaModule -->
<g id="node2" class="node">
<title>PrismaModule</title>
<polygon fill="#8dd3c7" stroke="black" points="230.43,-122 227.43,-126 206.43,-126 203.43,-122 131.57,-122 131.57,-86 230.43,-86 230.43,-122"/>
<text text-anchor="middle" x="181" y="-99.8" font-family="Times,serif" font-size="14.00">PrismaModule</text>
</g>
<!-- PrismaModule&#45;&gt;RelationalAssistantPersistenceModule -->
<g id="edge2" class="edge">
<title>PrismaModule&#45;&gt;RelationalAssistantPersistenceModule</title>
<path fill="none" stroke="black" d="M181.26,-122.11C181.26,-122.11 181.26,-140.99 181.26,-140.99"/>
<polygon fill="black" stroke="black" points="177.76,-140.99 181.26,-150.99 184.76,-140.99 177.76,-140.99"/>
</g>
<!-- AssistantRepository  -->
<g id="node4" class="node">
<title>AssistantRepository </title>
<polygon fill="#fb8072" stroke="black" points="314.26,-252 181.74,-252 181.74,-216 314.26,-216 314.26,-252"/>
<text text-anchor="middle" x="248" y="-229.8" font-family="Times,serif" font-size="14.00">AssistantRepository </text>
</g>
<!-- RelationalAssistantPersistenceModule&#45;&gt;AssistantRepository  -->
<g id="edge3" class="edge">
<title>RelationalAssistantPersistenceModule&#45;&gt;AssistantRepository </title>
<path fill="none" stroke="black" stroke-dasharray="5,2" d="M248,-187.11C248,-187.11 248,-205.99 248,-205.99"/>
<polygon fill="black" stroke="black" points="244.5,-205.99 248,-215.99 251.5,-205.99 244.5,-205.99"/>
</g>
</g>
</svg>
