<?xml version="1.0" encoding="UTF-8" standalone="no"?>
<!DOCTYPE svg PUBLIC "-//W3C//DTD SVG 1.1//EN"
 "http://www.w3.org/Graphics/SVG/1.1/DTD/svg11.dtd">
<!-- Generated by graphviz version 2.47.0 (20210316.0004)
 -->
<!-- Title: dependencies Pages: 1 -->
<svg width="917pt" height="284pt"
 viewBox="0.00 0.00 917.00 284.00" xmlns="http://www.w3.org/2000/svg" xmlns:xlink="http://www.w3.org/1999/xlink">
<g id="graph0" class="graph" transform="scale(1 1) rotate(0) translate(4 280)">
<title>dependencies</title>
<polygon fill="white" stroke="transparent" points="-4,4 -4,-280 913,-280 913,4 -4,4"/>
<text text-anchor="start" x="433.51" y="-42.4" font-family="Times-12" font-weight="bold" font-size="14.00">Legend</text>
<polygon fill="#ffffb3" stroke="transparent" points="220.5,-10 220.5,-30 240.5,-30 240.5,-10 220.5,-10"/>
<text text-anchor="start" x="244.13" y="-15.4" font-family="Times-12" font-size="14.00"> &#160;Declarations</text>
<polygon fill="#8dd3c7" stroke="transparent" points="333.5,-10 333.5,-30 353.5,-30 353.5,-10 333.5,-10"/>
<text text-anchor="start" x="357.23" y="-15.4" font-family="Times-12" font-size="14.00"> &#160;Module</text>
<polygon fill="#80b1d3" stroke="transparent" points="419.5,-10 419.5,-30 439.5,-30 439.5,-10 419.5,-10"/>
<text text-anchor="start" x="443.28" y="-15.4" font-family="Times-12" font-size="14.00"> &#160;Bootstrap</text>
<polygon fill="#fdb462" stroke="transparent" points="516.5,-10 516.5,-30 536.5,-30 536.5,-10 516.5,-10"/>
<text text-anchor="start" x="540.17" y="-15.4" font-family="Times-12" font-size="14.00"> &#160;Providers</text>
<polygon fill="#fb8072" stroke="transparent" points="612.5,-10 612.5,-30 632.5,-30 632.5,-10 612.5,-10"/>
<text text-anchor="start" x="636.23" y="-15.4" font-family="Times-12" font-size="14.00"> &#160;Exports</text>
<g id="clust1" class="cluster">
<title>cluster_RelationalDatasetsPersistenceModule</title>
<polygon fill="none" stroke="black" stroke-dasharray="1,5" points="8,-70 8,-268 901,-268 901,-70 8,-70"/>
</g>
<g id="clust4" class="cluster">
<title>cluster_RelationalDatasetsPersistenceModule_exports</title>
<polygon fill="none" stroke="black" points="16,-208 16,-260 893,-260 893,-208 16,-208"/>
</g>
<g id="clust3" class="cluster">
<title>cluster_RelationalDatasetsPersistenceModule_imports</title>
<polygon fill="none" stroke="black" points="344,-78 344,-130 592,-130 592,-78 344,-78"/>
</g>
<!-- ConfigureModule -->
<g id="node1" class="node">
<title>ConfigureModule</title>
<polygon fill="#8dd3c7" stroke="black" points="584.31,-122 581.31,-126 560.31,-126 557.31,-122 467.69,-122 467.69,-86 584.31,-86 584.31,-122"/>
<text text-anchor="middle" x="526" y="-99.8" font-family="Times,serif" font-size="14.00">ConfigureModule</text>
</g>
<!-- RelationalDatasetsPersistenceModule -->
<g id="node3" class="node">
<title>RelationalDatasetsPersistenceModule</title>
<polygon fill="#8dd3c7" stroke="black" points="577.99,-187 574.99,-191 553.99,-191 550.99,-187 350.01,-187 350.01,-151 577.99,-151 577.99,-187"/>
<text text-anchor="middle" x="464" y="-164.8" font-family="Times,serif" font-size="14.00">RelationalDatasetsPersistenceModule</text>
</g>
<!-- ConfigureModule&#45;&gt;RelationalDatasetsPersistenceModule -->
<g id="edge1" class="edge">
<title>ConfigureModule&#45;&gt;RelationalDatasetsPersistenceModule</title>
<path fill="none" stroke="black" d="M522.79,-122.11C522.79,-122.11 522.79,-140.99 522.79,-140.99"/>
<polygon fill="black" stroke="black" points="519.29,-140.99 522.79,-150.99 526.29,-140.99 519.29,-140.99"/>
</g>
<!-- PrismaModule -->
<g id="node2" class="node">
<title>PrismaModule</title>
<polygon fill="#8dd3c7" stroke="black" points="450.43,-122 447.43,-126 426.43,-126 423.43,-122 351.57,-122 351.57,-86 450.43,-86 450.43,-122"/>
<text text-anchor="middle" x="401" y="-99.8" font-family="Times,serif" font-size="14.00">PrismaModule</text>
</g>
<!-- PrismaModule&#45;&gt;RelationalDatasetsPersistenceModule -->
<g id="edge2" class="edge">
<title>PrismaModule&#45;&gt;RelationalDatasetsPersistenceModule</title>
<path fill="none" stroke="black" d="M401,-122.11C401,-122.11 401,-140.99 401,-140.99"/>
<polygon fill="black" stroke="black" points="397.5,-140.99 401,-150.99 404.5,-140.99 397.5,-140.99"/>
</g>
<!-- DatasetProcessRuleRepository  -->
<g id="node4" class="node">
<title>DatasetProcessRuleRepository </title>
<polygon fill="#fb8072" stroke="black" points="885.12,-252 692.88,-252 692.88,-216 885.12,-216 885.12,-252"/>
<text text-anchor="middle" x="789" y="-229.8" font-family="Times,serif" font-size="14.00">DatasetProcessRuleRepository </text>
</g>
<!-- RelationalDatasetsPersistenceModule&#45;&gt;DatasetProcessRuleRepository  -->
<g id="edge3" class="edge">
<title>RelationalDatasetsPersistenceModule&#45;&gt;DatasetProcessRuleRepository </title>
<path fill="none" stroke="black" stroke-dasharray="5,2" d="M578.13,-169C671.77,-169 789,-169 789,-169 789,-169 789,-205.89 789,-205.89"/>
<polygon fill="black" stroke="black" points="785.5,-205.89 789,-215.89 792.5,-205.89 785.5,-205.89"/>
</g>
<!-- DatasetRepository  -->
<g id="node5" class="node">
<title>DatasetRepository </title>
<polygon fill="#fb8072" stroke="black" points="674.41,-252 551.59,-252 551.59,-216 674.41,-216 674.41,-252"/>
<text text-anchor="middle" x="613" y="-229.8" font-family="Times,serif" font-size="14.00">DatasetRepository </text>
</g>
<!-- RelationalDatasetsPersistenceModule&#45;&gt;DatasetRepository  -->
<g id="edge4" class="edge">
<title>RelationalDatasetsPersistenceModule&#45;&gt;DatasetRepository </title>
<path fill="none" stroke="black" stroke-dasharray="5,2" d="M564.64,-187.11C564.64,-187.11 564.64,-205.99 564.64,-205.99"/>
<polygon fill="black" stroke="black" points="561.14,-205.99 564.64,-215.99 568.14,-205.99 561.14,-205.99"/>
</g>
<!-- DocumentRepository  -->
<g id="node6" class="node">
<title>DocumentRepository </title>
<polygon fill="#fb8072" stroke="black" points="533.75,-252 394.25,-252 394.25,-216 533.75,-216 533.75,-252"/>
<text text-anchor="middle" x="464" y="-229.8" font-family="Times,serif" font-size="14.00">DocumentRepository </text>
</g>
<!-- RelationalDatasetsPersistenceModule&#45;&gt;DocumentRepository  -->
<g id="edge5" class="edge">
<title>RelationalDatasetsPersistenceModule&#45;&gt;DocumentRepository </title>
<path fill="none" stroke="black" stroke-dasharray="5,2" d="M464,-187.11C464,-187.11 464,-205.99 464,-205.99"/>
<polygon fill="black" stroke="black" points="460.5,-205.99 464,-215.99 467.5,-205.99 460.5,-205.99"/>
</g>
<!-- DocumentSegmentRepository  -->
<g id="node7" class="node">
<title>DocumentSegmentRepository </title>
<polygon fill="#fb8072" stroke="black" points="376.25,-252 187.75,-252 187.75,-216 376.25,-216 376.25,-252"/>
<text text-anchor="middle" x="282" y="-229.8" font-family="Times,serif" font-size="14.00">DocumentSegmentRepository </text>
</g>
<!-- RelationalDatasetsPersistenceModule&#45;&gt;DocumentSegmentRepository  -->
<g id="edge6" class="edge">
<title>RelationalDatasetsPersistenceModule&#45;&gt;DocumentSegmentRepository </title>
<path fill="none" stroke="black" stroke-dasharray="5,2" d="M363.19,-187.11C363.19,-187.11 363.19,-205.99 363.19,-205.99"/>
<polygon fill="black" stroke="black" points="359.69,-205.99 363.19,-215.99 366.69,-205.99 359.69,-205.99"/>
</g>
<!-- EmbeddingRepository  -->
<g id="node8" class="node">
<title>EmbeddingRepository </title>
<polygon fill="#fb8072" stroke="black" points="169.99,-252 24.01,-252 24.01,-216 169.99,-216 169.99,-252"/>
<text text-anchor="middle" x="97" y="-229.8" font-family="Times,serif" font-size="14.00">EmbeddingRepository </text>
</g>
<!-- RelationalDatasetsPersistenceModule&#45;&gt;EmbeddingRepository  -->
<g id="edge7" class="edge">
<title>RelationalDatasetsPersistenceModule&#45;&gt;EmbeddingRepository </title>
<path fill="none" stroke="black" stroke-dasharray="5,2" d="M350.14,-169C242.38,-169 97,-169 97,-169 97,-169 97,-205.89 97,-205.89"/>
<polygon fill="black" stroke="black" points="93.5,-205.89 97,-215.89 100.5,-205.89 93.5,-205.89"/>
</g>
</g>
</svg>
