<?xml version="1.0" encoding="UTF-8" standalone="no"?>
<!DOCTYPE svg PUBLIC "-//W3C//DTD SVG 1.1//EN"
 "http://www.w3.org/Graphics/SVG/1.1/DTD/svg11.dtd">
<!-- Generated by graphviz version 2.47.0 (20210316.0004)
 -->
<!-- Title: dependencies Pages: 1 -->
<svg width="564pt" height="211pt"
 viewBox="0.00 0.00 564.00 211.00" xmlns="http://www.w3.org/2000/svg" xmlns:xlink="http://www.w3.org/1999/xlink">
<g id="graph0" class="graph" transform="scale(1 1) rotate(0) translate(4 207)">
<title>dependencies</title>
<polygon fill="white" stroke="transparent" points="-4,4 -4,-207 560,-207 560,4 -4,4"/>
<text text-anchor="start" x="257.01" y="-42.4" font-family="Times-12" font-weight="bold" font-size="14.00">Legend</text>
<polygon fill="#ffffb3" stroke="transparent" points="44,-10 44,-30 64,-30 64,-10 44,-10"/>
<text text-anchor="start" x="67.63" y="-15.4" font-family="Times-12" font-size="14.00"> &#160;Declarations</text>
<polygon fill="#8dd3c7" stroke="transparent" points="157,-10 157,-30 177,-30 177,-10 157,-10"/>
<text text-anchor="start" x="180.73" y="-15.4" font-family="Times-12" font-size="14.00"> &#160;Module</text>
<polygon fill="#80b1d3" stroke="transparent" points="243,-10 243,-30 263,-30 263,-10 243,-10"/>
<text text-anchor="start" x="266.78" y="-15.4" font-family="Times-12" font-size="14.00"> &#160;Bootstrap</text>
<polygon fill="#fdb462" stroke="transparent" points="340,-10 340,-30 360,-30 360,-10 340,-10"/>
<text text-anchor="start" x="363.67" y="-15.4" font-family="Times-12" font-size="14.00"> &#160;Providers</text>
<polygon fill="#fb8072" stroke="transparent" points="436,-10 436,-30 456,-30 456,-10 436,-10"/>
<text text-anchor="start" x="459.73" y="-15.4" font-family="Times-12" font-size="14.00"> &#160;Exports</text>
<g id="clust1" class="cluster">
<title>cluster_FilesModule</title>
<polygon fill="none" stroke="black" stroke-dasharray="1,5" points="8,-70 8,-195 548,-195 548,-70 8,-70"/>
</g>
<g id="clust3" class="cluster">
<title>cluster_FilesModule_imports</title>
<polygon fill="none" stroke="black" points="158,-78 158,-130 540,-130 540,-78 158,-78"/>
</g>
<g id="clust6" class="cluster">
<title>cluster_FilesModule_providers</title>
<polygon fill="none" stroke="black" points="16,-78 16,-130 150,-130 150,-78 16,-78"/>
</g>
<!-- ConfigureModule -->
<g id="node1" class="node">
<title>ConfigureModule</title>
<polygon fill="#8dd3c7" stroke="black" points="532.31,-122 529.31,-126 508.31,-126 505.31,-122 415.69,-122 415.69,-86 532.31,-86 532.31,-122"/>
<text text-anchor="middle" x="474" y="-99.8" font-family="Times,serif" font-size="14.00">ConfigureModule</text>
</g>
<!-- FilesModule -->
<g id="node3" class="node">
<title>FilesModule</title>
<polygon fill="#8dd3c7" stroke="black" points="325.27,-187 322.27,-191 301.27,-191 298.27,-187 238.73,-187 238.73,-151 325.27,-151 325.27,-187"/>
<text text-anchor="middle" x="282" y="-164.8" font-family="Times,serif" font-size="14.00">FilesModule</text>
</g>
<!-- ConfigureModule&#45;&gt;FilesModule -->
<g id="edge1" class="edge">
<title>ConfigureModule&#45;&gt;FilesModule</title>
<path fill="none" stroke="black" d="M474,-122.11C474,-141.34 474,-169 474,-169 474,-169 335.57,-169 335.57,-169"/>
<polygon fill="black" stroke="black" points="335.57,-165.5 325.57,-169 335.57,-172.5 335.57,-165.5"/>
</g>
<!-- RelationaLeekFilesPersistenceModule -->
<g id="node2" class="node">
<title>RelationaLeekFilesPersistenceModule</title>
<polygon fill="#8dd3c7" stroke="black" points="397.88,-122 394.88,-126 373.88,-126 370.88,-122 166.12,-122 166.12,-86 397.88,-86 397.88,-122"/>
<text text-anchor="middle" x="282" y="-99.8" font-family="Times,serif" font-size="14.00">RelationaLeekFilesPersistenceModule</text>
</g>
<!-- RelationaLeekFilesPersistenceModule&#45;&gt;FilesModule -->
<g id="edge2" class="edge">
<title>RelationaLeekFilesPersistenceModule&#45;&gt;FilesModule</title>
<path fill="none" stroke="black" d="M282,-122.11C282,-122.11 282,-140.99 282,-140.99"/>
<polygon fill="black" stroke="black" points="278.5,-140.99 282,-150.99 285.5,-140.99 278.5,-140.99"/>
</g>
<!-- FilesService -->
<g id="node4" class="node">
<title>FilesService</title>
<ellipse fill="#fdb462" stroke="black" cx="83" cy="-104" rx="58.54" ry="18"/>
<text text-anchor="middle" x="83" y="-99.8" font-family="Times,serif" font-size="14.00">FilesService</text>
</g>
<!-- FilesService&#45;&gt;FilesModule -->
<g id="edge3" class="edge">
<title>FilesService&#45;&gt;FilesModule</title>
<path fill="none" stroke="black" d="M83,-122.11C83,-141.34 83,-169 83,-169 83,-169 228.33,-169 228.33,-169"/>
<polygon fill="black" stroke="black" points="228.33,-172.5 238.33,-169 228.33,-165.5 228.33,-172.5"/>
</g>
</g>
</svg>
