<?xml version="1.0" encoding="UTF-8" standalone="no"?>
<!DOCTYPE svg PUBLIC "-//W3C//DTD SVG 1.1//EN"
 "http://www.w3.org/Graphics/SVG/1.1/DTD/svg11.dtd">
<!-- Generated by graphviz version 2.47.0 (20210316.0004)
 -->
<!-- Title: dependencies Pages: 1 -->
<svg width="674pt" height="211pt"
 viewBox="0.00 0.00 674.00 211.00" xmlns="http://www.w3.org/2000/svg" xmlns:xlink="http://www.w3.org/1999/xlink">
<g id="graph0" class="graph" transform="scale(1 1) rotate(0) translate(4 207)">
<title>dependencies</title>
<polygon fill="white" stroke="transparent" points="-4,4 -4,-207 670,-207 670,4 -4,4"/>
<text text-anchor="start" x="312.01" y="-42.4" font-family="Times-12" font-weight="bold" font-size="14.00">Legend</text>
<polygon fill="#ffffb3" stroke="transparent" points="99,-10 99,-30 119,-30 119,-10 99,-10"/>
<text text-anchor="start" x="122.63" y="-15.4" font-family="Times-12" font-size="14.00"> &#160;Declarations</text>
<polygon fill="#8dd3c7" stroke="transparent" points="212,-10 212,-30 232,-30 232,-10 212,-10"/>
<text text-anchor="start" x="235.73" y="-15.4" font-family="Times-12" font-size="14.00"> &#160;Module</text>
<polygon fill="#80b1d3" stroke="transparent" points="298,-10 298,-30 318,-30 318,-10 298,-10"/>
<text text-anchor="start" x="321.78" y="-15.4" font-family="Times-12" font-size="14.00"> &#160;Bootstrap</text>
<polygon fill="#fdb462" stroke="transparent" points="395,-10 395,-30 415,-30 415,-10 395,-10"/>
<text text-anchor="start" x="418.67" y="-15.4" font-family="Times-12" font-size="14.00"> &#160;Providers</text>
<polygon fill="#fb8072" stroke="transparent" points="491,-10 491,-30 511,-30 511,-10 491,-10"/>
<text text-anchor="start" x="514.73" y="-15.4" font-family="Times-12" font-size="14.00"> &#160;Exports</text>
<g id="clust1" class="cluster">
<title>cluster_AppModule</title>
<polygon fill="none" stroke="black" stroke-dasharray="1,5" points="8,-70 8,-195 658,-195 658,-70 8,-70"/>
</g>
<g id="clust6" class="cluster">
<title>cluster_AppModule_providers</title>
<polygon fill="none" stroke="black" points="520,-78 520,-130 650,-130 650,-78 520,-78"/>
</g>
<g id="clust3" class="cluster">
<title>cluster_AppModule_imports</title>
<polygon fill="none" stroke="black" points="16,-78 16,-130 512,-130 512,-78 16,-78"/>
</g>
<!-- AssistantsModule -->
<g id="node1" class="node">
<title>AssistantsModule</title>
<polygon fill="#8dd3c7" stroke="black" points="504.32,-122 501.32,-126 480.32,-126 477.32,-122 387.68,-122 387.68,-86 504.32,-86 504.32,-122"/>
<text text-anchor="middle" x="446" y="-99.8" font-family="Times,serif" font-size="14.00">AssistantsModule</text>
</g>
<!-- AppModule -->
<g id="node5" class="node">
<title>AppModule</title>
<polygon fill="#8dd3c7" stroke="black" points="353.66,-187 350.66,-191 329.66,-191 326.66,-187 270.34,-187 270.34,-151 353.66,-151 353.66,-187"/>
<text text-anchor="middle" x="312" y="-164.8" font-family="Times,serif" font-size="14.00">AppModule</text>
</g>
<!-- AssistantsModule&#45;&gt;AppModule -->
<g id="edge1" class="edge">
<title>AssistantsModule&#45;&gt;AppModule</title>
<path fill="none" stroke="black" d="M446,-122.02C446,-139.37 446,-163 446,-163 446,-163 363.66,-163 363.66,-163"/>
<polygon fill="black" stroke="black" points="363.66,-159.5 353.66,-163 363.66,-166.5 363.66,-159.5"/>
</g>
<!-- ConfigureModule -->
<g id="node2" class="node">
<title>ConfigureModule</title>
<polygon fill="#8dd3c7" stroke="black" points="370.31,-122 367.31,-126 346.31,-126 343.31,-122 253.69,-122 253.69,-86 370.31,-86 370.31,-122"/>
<text text-anchor="middle" x="312" y="-99.8" font-family="Times,serif" font-size="14.00">ConfigureModule</text>
</g>
<!-- ConfigureModule&#45;&gt;AppModule -->
<g id="edge2" class="edge">
<title>ConfigureModule&#45;&gt;AppModule</title>
<path fill="none" stroke="black" d="M312,-122.11C312,-122.11 312,-140.99 312,-140.99"/>
<polygon fill="black" stroke="black" points="308.5,-140.99 312,-150.99 315.5,-140.99 308.5,-140.99"/>
</g>
<!-- DatasetsModule -->
<g id="node3" class="node">
<title>DatasetsModule</title>
<polygon fill="#8dd3c7" stroke="black" points="235.47,-122 232.47,-126 211.47,-126 208.47,-122 128.53,-122 128.53,-86 235.47,-86 235.47,-122"/>
<text text-anchor="middle" x="182" y="-99.8" font-family="Times,serif" font-size="14.00">DatasetsModule</text>
</g>
<!-- DatasetsModule&#45;&gt;AppModule -->
<g id="edge3" class="edge">
<title>DatasetsModule&#45;&gt;AppModule</title>
<path fill="none" stroke="black" d="M182,-122.02C182,-139.37 182,-163 182,-163 182,-163 260.15,-163 260.15,-163"/>
<polygon fill="black" stroke="black" points="260.15,-166.5 270.15,-163 260.15,-159.5 260.15,-166.5"/>
</g>
<!-- FilesModule -->
<g id="node4" class="node">
<title>FilesModule</title>
<polygon fill="#8dd3c7" stroke="black" points="110.27,-122 107.27,-126 86.27,-126 83.27,-122 23.73,-122 23.73,-86 110.27,-86 110.27,-122"/>
<text text-anchor="middle" x="67" y="-99.8" font-family="Times,serif" font-size="14.00">FilesModule</text>
</g>
<!-- FilesModule&#45;&gt;AppModule -->
<g id="edge4" class="edge">
<title>FilesModule&#45;&gt;AppModule</title>
<path fill="none" stroke="black" d="M67,-122.28C67,-143.32 67,-175 67,-175 67,-175 260.16,-175 260.16,-175"/>
<polygon fill="black" stroke="black" points="260.16,-178.5 270.16,-175 260.16,-171.5 260.16,-178.5"/>
</g>
<!-- AppService -->
<g id="node6" class="node">
<title>AppService</title>
<ellipse fill="#fdb462" stroke="black" cx="585" cy="-104" rx="56.74" ry="18"/>
<text text-anchor="middle" x="585" y="-99.8" font-family="Times,serif" font-size="14.00">AppService</text>
</g>
<!-- AppService&#45;&gt;AppModule -->
<g id="edge5" class="edge">
<title>AppService&#45;&gt;AppModule</title>
<path fill="none" stroke="black" d="M585,-122.28C585,-143.32 585,-175 585,-175 585,-175 363.76,-175 363.76,-175"/>
<polygon fill="black" stroke="black" points="363.76,-171.5 353.76,-175 363.76,-178.5 363.76,-171.5"/>
</g>
</g>
</svg>
