<?xml version="1.0" encoding="UTF-8" standalone="no"?>
<!DOCTYPE svg PUBLIC "-//W3C//DTD SVG 1.1//EN"
 "http://www.w3.org/Graphics/SVG/1.1/DTD/svg11.dtd">
<!-- Generated by graphviz version 2.47.0 (20210316.0004)
 -->
<!-- Title: dependencies Pages: 1 -->
<svg width="2703pt" height="211pt"
 viewBox="0.00 0.00 2703.00 211.00" xmlns="http://www.w3.org/2000/svg" xmlns:xlink="http://www.w3.org/1999/xlink">
<g id="graph0" class="graph" transform="scale(1 1) rotate(0) translate(4 207)">
<title>dependencies</title>
<polygon fill="white" stroke="transparent" points="-4,4 -4,-207 2699,-207 2699,4 -4,4"/>
<text text-anchor="start" x="1326.51" y="-42.4" font-family="Times-12" font-weight="bold" font-size="14.00">Legend</text>
<polygon fill="#ffffb3" stroke="transparent" points="1113.5,-10 1113.5,-30 1133.5,-30 1133.5,-10 1113.5,-10"/>
<text text-anchor="start" x="1137.13" y="-15.4" font-family="Times-12" font-size="14.00"> &#160;Declarations</text>
<polygon fill="#8dd3c7" stroke="transparent" points="1226.5,-10 1226.5,-30 1246.5,-30 1246.5,-10 1226.5,-10"/>
<text text-anchor="start" x="1250.23" y="-15.4" font-family="Times-12" font-size="14.00"> &#160;Module</text>
<polygon fill="#80b1d3" stroke="transparent" points="1312.5,-10 1312.5,-30 1332.5,-30 1332.5,-10 1312.5,-10"/>
<text text-anchor="start" x="1336.28" y="-15.4" font-family="Times-12" font-size="14.00"> &#160;Bootstrap</text>
<polygon fill="#fdb462" stroke="transparent" points="1409.5,-10 1409.5,-30 1429.5,-30 1429.5,-10 1409.5,-10"/>
<text text-anchor="start" x="1433.17" y="-15.4" font-family="Times-12" font-size="14.00"> &#160;Providers</text>
<polygon fill="#fb8072" stroke="transparent" points="1505.5,-10 1505.5,-30 1525.5,-30 1525.5,-10 1505.5,-10"/>
<text text-anchor="start" x="1529.23" y="-15.4" font-family="Times-12" font-size="14.00"> &#160;Exports</text>
<g id="clust1" class="cluster">
<title>cluster_DatasetsModule</title>
<polygon fill="none" stroke="black" stroke-dasharray="1,5" points="8,-70 8,-195 2687,-195 2687,-70 8,-70"/>
</g>
<g id="clust6" class="cluster">
<title>cluster_DatasetsModule_providers</title>
<polygon fill="none" stroke="black" points="767,-78 767,-130 2679,-130 2679,-78 767,-78"/>
</g>
<g id="clust3" class="cluster">
<title>cluster_DatasetsModule_imports</title>
<polygon fill="none" stroke="black" points="16,-78 16,-130 759,-130 759,-78 16,-78"/>
</g>
<!-- ConfigureModule -->
<g id="node1" class="node">
<title>ConfigureModule</title>
<polygon fill="#8dd3c7" stroke="black" points="751.31,-122 748.31,-126 727.31,-126 724.31,-122 634.69,-122 634.69,-86 751.31,-86 751.31,-122"/>
<text text-anchor="middle" x="693" y="-99.8" font-family="Times,serif" font-size="14.00">ConfigureModule</text>
</g>
<!-- DatasetsModule -->
<g id="node5" class="node">
<title>DatasetsModule</title>
<polygon fill="#8dd3c7" stroke="black" points="1419.47,-187 1416.47,-191 1395.47,-191 1392.47,-187 1312.53,-187 1312.53,-151 1419.47,-151 1419.47,-187"/>
<text text-anchor="middle" x="1366" y="-164.8" font-family="Times,serif" font-size="14.00">DatasetsModule</text>
</g>
<!-- ConfigureModule&#45;&gt;DatasetsModule -->
<g id="edge1" class="edge">
<title>ConfigureModule&#45;&gt;DatasetsModule</title>
<path fill="none" stroke="black" d="M693,-122.22C693,-140.83 693,-167 693,-167 693,-167 1302.35,-167 1302.35,-167"/>
<polygon fill="black" stroke="black" points="1302.35,-170.5 1312.35,-167 1302.35,-163.5 1302.35,-170.5"/>
</g>
<!-- PrismaModule -->
<g id="node2" class="node">
<title>PrismaModule</title>
<polygon fill="#8dd3c7" stroke="black" points="617.43,-122 614.43,-126 593.43,-126 590.43,-122 518.57,-122 518.57,-86 617.43,-86 617.43,-122"/>
<text text-anchor="middle" x="568" y="-99.8" font-family="Times,serif" font-size="14.00">PrismaModule</text>
</g>
<!-- PrismaModule&#45;&gt;DatasetsModule -->
<g id="edge2" class="edge">
<title>PrismaModule&#45;&gt;DatasetsModule</title>
<path fill="none" stroke="black" d="M568,-122.22C568,-142.37 568,-172 568,-172 568,-172 1302.4,-172 1302.4,-172"/>
<polygon fill="black" stroke="black" points="1302.4,-175.5 1312.4,-172 1302.4,-168.5 1302.4,-175.5"/>
</g>
<!-- RelationaLeekFilesPersistenceModule -->
<g id="node3" class="node">
<title>RelationaLeekFilesPersistenceModule</title>
<polygon fill="#8dd3c7" stroke="black" points="500.88,-122 497.88,-126 476.88,-126 473.88,-122 269.12,-122 269.12,-86 500.88,-86 500.88,-122"/>
<text text-anchor="middle" x="385" y="-99.8" font-family="Times,serif" font-size="14.00">RelationaLeekFilesPersistenceModule</text>
</g>
<!-- RelationaLeekFilesPersistenceModule&#45;&gt;DatasetsModule -->
<g id="edge3" class="edge">
<title>RelationaLeekFilesPersistenceModule&#45;&gt;DatasetsModule</title>
<path fill="none" stroke="black" d="M385,-122.04C385,-143.66 385,-177 385,-177 385,-177 1302.21,-177 1302.21,-177"/>
<polygon fill="black" stroke="black" points="1302.21,-180.5 1312.21,-177 1302.21,-173.5 1302.21,-180.5"/>
</g>
<!-- RelationalDatasetsPersistenceModule -->
<g id="node4" class="node">
<title>RelationalDatasetsPersistenceModule</title>
<polygon fill="#8dd3c7" stroke="black" points="251.99,-122 248.99,-126 227.99,-126 224.99,-122 24.01,-122 24.01,-86 251.99,-86 251.99,-122"/>
<text text-anchor="middle" x="138" y="-99.8" font-family="Times,serif" font-size="14.00">RelationalDatasetsPersistenceModule</text>
</g>
<!-- RelationalDatasetsPersistenceModule&#45;&gt;DatasetsModule -->
<g id="edge4" class="edge">
<title>RelationalDatasetsPersistenceModule&#45;&gt;DatasetsModule</title>
<path fill="none" stroke="black" d="M138,-122.09C138,-145.13 138,-182 138,-182 138,-182 1302.44,-182 1302.44,-182"/>
<polygon fill="black" stroke="black" points="1302.44,-185.5 1312.44,-182 1302.44,-178.5 1302.44,-185.5"/>
</g>
<!-- DatasetService -->
<g id="node6" class="node">
<title>DatasetService</title>
<ellipse fill="#fdb462" stroke="black" cx="2602" cy="-104" rx="68.89" ry="18"/>
<text text-anchor="middle" x="2602" y="-99.8" font-family="Times,serif" font-size="14.00">DatasetService</text>
</g>
<!-- DatasetService&#45;&gt;DatasetsModule -->
<g id="edge5" class="edge">
<title>DatasetService&#45;&gt;DatasetsModule</title>
<path fill="none" stroke="black" d="M2602,-122.09C2602,-145.13 2602,-182 2602,-182 2602,-182 1429.51,-182 1429.51,-182"/>
<polygon fill="black" stroke="black" points="1429.51,-178.5 1419.51,-182 1429.51,-185.5 1429.51,-178.5"/>
</g>
<!-- DocumentSegmentService -->
<g id="node7" class="node">
<title>DocumentSegmentService</title>
<ellipse fill="#fdb462" stroke="black" cx="2401" cy="-104" rx="114.02" ry="18"/>
<text text-anchor="middle" x="2401" y="-99.8" font-family="Times,serif" font-size="14.00">DocumentSegmentService</text>
</g>
<!-- DocumentSegmentService&#45;&gt;DatasetsModule -->
<g id="edge6" class="edge">
<title>DocumentSegmentService&#45;&gt;DatasetsModule</title>
<path fill="none" stroke="black" d="M2401,-122.04C2401,-143.66 2401,-177 2401,-177 2401,-177 1429.83,-177 1429.83,-177"/>
<polygon fill="black" stroke="black" points="1429.83,-173.5 1419.83,-177 1429.83,-180.5 1429.83,-173.5"/>
</g>
<!-- DocumentService -->
<g id="node8" class="node">
<title>DocumentService</title>
<ellipse fill="#fdb462" stroke="black" cx="2189" cy="-104" rx="80.44" ry="18"/>
<text text-anchor="middle" x="2189" y="-99.8" font-family="Times,serif" font-size="14.00">DocumentService</text>
</g>
<!-- DocumentService&#45;&gt;DatasetsModule -->
<g id="edge7" class="edge">
<title>DocumentService&#45;&gt;DatasetsModule</title>
<path fill="none" stroke="black" d="M2189,-122.22C2189,-142.37 2189,-172 2189,-172 2189,-172 1429.68,-172 1429.68,-172"/>
<polygon fill="black" stroke="black" points="1429.68,-168.5 1419.68,-172 1429.68,-175.5 1429.68,-168.5"/>
</g>
<!-- FilesService -->
<g id="node9" class="node">
<title>FilesService</title>
<ellipse fill="#fdb462" stroke="black" cx="2032" cy="-104" rx="58.54" ry="18"/>
<text text-anchor="middle" x="2032" y="-99.8" font-family="Times,serif" font-size="14.00">FilesService</text>
</g>
<!-- FilesService&#45;&gt;DatasetsModule -->
<g id="edge8" class="edge">
<title>FilesService&#45;&gt;DatasetsModule</title>
<path fill="none" stroke="black" d="M2032,-122.22C2032,-140.83 2032,-167 2032,-167 2032,-167 1429.66,-167 1429.66,-167"/>
<polygon fill="black" stroke="black" points="1429.66,-163.5 1419.66,-167 1429.66,-170.5 1429.66,-163.5"/>
</g>
<!-- IndexingService -->
<g id="node10" class="node">
<title>IndexingService</title>
<ellipse fill="#fdb462" stroke="black" cx="1881" cy="-104" rx="74.14" ry="18"/>
<text text-anchor="middle" x="1881" y="-99.8" font-family="Times,serif" font-size="14.00">IndexingService</text>
</g>
<!-- IndexingService&#45;&gt;DatasetsModule -->
<g id="edge9" class="edge">
<title>IndexingService&#45;&gt;DatasetsModule</title>
<path fill="none" stroke="black" d="M1881,-122.03C1881,-139.06 1881,-162 1881,-162 1881,-162 1429.66,-162 1429.66,-162"/>
<polygon fill="black" stroke="black" points="1429.66,-158.5 1419.66,-162 1429.66,-165.5 1429.66,-158.5"/>
</g>
<!-- JiebaKeywordService -->
<g id="node11" class="node">
<title>JiebaKeywordService</title>
<ellipse fill="#fdb462" stroke="black" cx="1693" cy="-104" rx="95.53" ry="18"/>
<text text-anchor="middle" x="1693" y="-99.8" font-family="Times,serif" font-size="14.00">JiebaKeywordService</text>
</g>
<!-- JiebaKeywordService&#45;&gt;DatasetsModule -->
<g id="edge10" class="edge">
<title>JiebaKeywordService&#45;&gt;DatasetsModule</title>
<path fill="none" stroke="black" d="M1693,-122.24C1693,-137.57 1693,-157 1693,-157 1693,-157 1429.63,-157 1429.63,-157"/>
<polygon fill="black" stroke="black" points="1429.63,-153.5 1419.63,-157 1429.63,-160.5 1429.63,-153.5"/>
</g>
<!-- LLMGeneratorService -->
<g id="node12" class="node">
<title>LLMGeneratorService</title>
<ellipse fill="#fdb462" stroke="black" cx="1480" cy="-104" rx="98.95" ry="18"/>
<text text-anchor="middle" x="1480" y="-99.8" font-family="Times,serif" font-size="14.00">LLMGeneratorService</text>
</g>
<!-- LLMGeneratorService&#45;&gt;DatasetsModule -->
<g id="edge11" class="edge">
<title>LLMGeneratorService&#45;&gt;DatasetsModule</title>
<path fill="none" stroke="black" d="M1400.25,-114.73C1400.25,-114.73 1400.25,-140.87 1400.25,-140.87"/>
<polygon fill="black" stroke="black" points="1396.75,-140.87 1400.25,-150.87 1403.75,-140.87 1396.75,-140.87"/>
</g>
<!-- ProcessDocumentService -->
<g id="node13" class="node">
<title>ProcessDocumentService</title>
<ellipse fill="#fdb462" stroke="black" cx="1253" cy="-104" rx="109.93" ry="18"/>
<text text-anchor="middle" x="1253" y="-99.8" font-family="Times,serif" font-size="14.00">ProcessDocumentService</text>
</g>
<!-- ProcessDocumentService&#45;&gt;DatasetsModule -->
<g id="edge12" class="edge">
<title>ProcessDocumentService&#45;&gt;DatasetsModule</title>
<path fill="none" stroke="black" d="M1337.61,-115.62C1337.61,-115.62 1337.61,-140.85 1337.61,-140.85"/>
<polygon fill="black" stroke="black" points="1334.11,-140.85 1337.61,-150.85 1341.11,-140.85 1334.11,-140.85"/>
</g>
<!-- RetrievalService -->
<g id="node14" class="node">
<title>RetrievalService</title>
<ellipse fill="#fdb462" stroke="black" cx="1050" cy="-104" rx="75.27" ry="18"/>
<text text-anchor="middle" x="1050" y="-99.8" font-family="Times,serif" font-size="14.00">RetrievalService</text>
</g>
<!-- RetrievalService&#45;&gt;DatasetsModule -->
<g id="edge13" class="edge">
<title>RetrievalService&#45;&gt;DatasetsModule</title>
<path fill="none" stroke="black" d="M1050,-122.24C1050,-137.57 1050,-157 1050,-157 1050,-157 1302.39,-157 1302.39,-157"/>
<polygon fill="black" stroke="black" points="1302.39,-160.5 1312.39,-157 1302.39,-153.5 1302.39,-160.5"/>
</g>
<!-- TransactionManager -->
<g id="node15" class="node">
<title>TransactionManager</title>
<ellipse fill="#fdb462" stroke="black" cx="866" cy="-104" rx="90.87" ry="18"/>
<text text-anchor="middle" x="866" y="-99.8" font-family="Times,serif" font-size="14.00">TransactionManager</text>
</g>
<!-- TransactionManager&#45;&gt;DatasetsModule -->
<g id="edge14" class="edge">
<title>TransactionManager&#45;&gt;DatasetsModule</title>
<path fill="none" stroke="black" d="M866,-122.03C866,-139.06 866,-162 866,-162 866,-162 1302.49,-162 1302.49,-162"/>
<polygon fill="black" stroke="black" points="1302.49,-165.5 1312.49,-162 1302.49,-158.5 1302.49,-165.5"/>
</g>
</g>
</svg>
