<?xml version="1.0" encoding="UTF-8" standalone="no"?>
<!DOCTYPE svg PUBLIC "-//W3C//DTD SVG 1.1//EN"
 "http://www.w3.org/Graphics/SVG/1.1/DTD/svg11.dtd">
<!-- Generated by graphviz version 2.47.0 (20210316.0004)
 -->
<!-- Title: dependencies Pages: 1 -->
<svg width="4363pt" height="355pt"
 viewBox="0.00 0.00 4363.00 355.00" xmlns="http://www.w3.org/2000/svg" xmlns:xlink="http://www.w3.org/1999/xlink">
<g id="graph0" class="graph" transform="scale(1 1) rotate(0) translate(4 351)">
<title>dependencies</title>
<polygon fill="white" stroke="transparent" points="-4,4 -4,-351 4359,-351 4359,4 -4,4"/>
<text text-anchor="start" x="2156.51" y="-42.4" font-family="Times-12" font-weight="bold" font-size="14.00">Legend</text>
<polygon fill="#ffffb3" stroke="transparent" points="1943.5,-10 1943.5,-30 1963.5,-30 1963.5,-10 1943.5,-10"/>
<text text-anchor="start" x="1967.13" y="-15.4" font-family="Times-12" font-size="14.00"> &#160;Declarations</text>
<polygon fill="#8dd3c7" stroke="transparent" points="2056.5,-10 2056.5,-30 2076.5,-30 2076.5,-10 2056.5,-10"/>
<text text-anchor="start" x="2080.23" y="-15.4" font-family="Times-12" font-size="14.00"> &#160;Module</text>
<polygon fill="#80b1d3" stroke="transparent" points="2142.5,-10 2142.5,-30 2162.5,-30 2162.5,-10 2142.5,-10"/>
<text text-anchor="start" x="2166.28" y="-15.4" font-family="Times-12" font-size="14.00"> &#160;Bootstrap</text>
<polygon fill="#fdb462" stroke="transparent" points="2239.5,-10 2239.5,-30 2259.5,-30 2259.5,-10 2239.5,-10"/>
<text text-anchor="start" x="2263.17" y="-15.4" font-family="Times-12" font-size="14.00"> &#160;Providers</text>
<polygon fill="#fb8072" stroke="transparent" points="2335.5,-10 2335.5,-30 2355.5,-30 2355.5,-10 2335.5,-10"/>
<text text-anchor="start" x="2359.23" y="-15.4" font-family="Times-12" font-size="14.00"> &#160;Exports</text>
<g id="clust1" class="cluster">
<title>cluster_AppModule</title>
<polygon fill="none" stroke="black" stroke-dasharray="1,5" points="170,-138 170,-339 700,-339 700,-138 170,-138"/>
</g>
<g id="clust3" class="cluster">
<title>cluster_AppModule_imports</title>
<polygon fill="none" stroke="black" points="330,-146 330,-274 692,-274 692,-146 330,-146"/>
</g>
<g id="clust6" class="cluster">
<title>cluster_AppModule_providers</title>
<polygon fill="none" stroke="black" points="178,-222 178,-274 308,-274 308,-222 178,-222"/>
</g>
<g id="clust7" class="cluster">
<title>cluster_AssistantsModule</title>
<polygon fill="none" stroke="black" stroke-dasharray="1,5" points="3125,-138 3125,-206 3977,-206 3977,-138 3125,-138"/>
</g>
<g id="clust9" class="cluster">
<title>cluster_AssistantsModule_imports</title>
<polygon fill="none" stroke="black" points="3476,-146 3476,-198 3969,-198 3969,-146 3476,-146"/>
</g>
<g id="clust12" class="cluster">
<title>cluster_AssistantsModule_providers</title>
<polygon fill="none" stroke="black" points="3133,-146 3133,-198 3468,-198 3468,-146 3133,-146"/>
</g>
<g id="clust13" class="cluster">
<title>cluster_ConfigureModule</title>
<polygon fill="none" stroke="black" stroke-dasharray="1,5" points="8,-214 8,-282 162,-282 162,-214 8,-214"/>
</g>
<g id="clust16" class="cluster">
<title>cluster_ConfigureModule_exports</title>
<polygon fill="none" stroke="black" points="16,-222 16,-274 154,-274 154,-222 16,-222"/>
</g>
<g id="clust19" class="cluster">
<title>cluster_DatasetsModule</title>
<polygon fill="none" stroke="black" stroke-dasharray="1,5" points="1102,-70 1102,-206 3117,-206 3117,-70 1102,-70"/>
</g>
<g id="clust21" class="cluster">
<title>cluster_DatasetsModule_imports</title>
<polygon fill="none" stroke="black" points="2861,-78 2861,-198 3109,-198 3109,-78 2861,-78"/>
</g>
<g id="clust24" class="cluster">
<title>cluster_DatasetsModule_providers</title>
<polygon fill="none" stroke="black" points="1110,-78 1110,-130 2853,-130 2853,-78 1110,-78"/>
</g>
<g id="clust31" class="cluster">
<title>cluster_PrismaModule</title>
<polygon fill="none" stroke="black" stroke-dasharray="1,5" points="804,-138 804,-206 1094,-206 1094,-138 804,-138"/>
</g>
<g id="clust34" class="cluster">
<title>cluster_PrismaModule_exports</title>
<polygon fill="none" stroke="black" points="970,-146 970,-198 1086,-198 1086,-146 970,-146"/>
</g>
<g id="clust36" class="cluster">
<title>cluster_PrismaModule_providers</title>
<polygon fill="none" stroke="black" points="812,-146 812,-198 962,-198 962,-146 812,-146"/>
</g>
<g id="clust37" class="cluster">
<title>cluster_RelationalAssistantPersistenceModule</title>
<polygon fill="none" stroke="black" stroke-dasharray="1,5" points="3283,-214 3283,-282 3447,-282 3447,-214 3283,-214"/>
</g>
<g id="clust40" class="cluster">
<title>cluster_RelationalAssistantPersistenceModule_exports</title>
<polygon fill="none" stroke="black" points="3291,-222 3291,-274 3439,-274 3439,-222 3291,-222"/>
</g>
<g id="clust43" class="cluster">
<title>cluster_RelationalDatasetsPersistenceModule</title>
<polygon fill="none" stroke="black" stroke-dasharray="1,5" points="3455,-214 3455,-282 4347,-282 4347,-214 3455,-214"/>
</g>
<g id="clust46" class="cluster">
<title>cluster_RelationalDatasetsPersistenceModule_exports</title>
<polygon fill="none" stroke="black" points="3463,-222 3463,-274 4339,-274 4339,-222 3463,-222"/>
</g>
<g id="clust49" class="cluster">
<title>cluster_RelationaLeekFilesPersistenceModule</title>
<polygon fill="none" stroke="black" stroke-dasharray="1,5" points="2915,-214 2915,-282 3055,-282 3055,-214 2915,-214"/>
</g>
<g id="clust52" class="cluster">
<title>cluster_RelationaLeekFilesPersistenceModule_exports</title>
<polygon fill="none" stroke="black" points="2923,-222 2923,-274 3047,-274 3047,-222 2923,-222"/>
</g>
<!-- AssistantsModule -->
<g id="node1" class="node">
<title>AssistantsModule</title>
<polygon fill="#8dd3c7" stroke="black" points="684.32,-266 681.32,-270 660.32,-270 657.32,-266 567.68,-266 567.68,-230 684.32,-230 684.32,-266"/>
<text text-anchor="middle" x="626" y="-243.8" font-family="Times,serif" font-size="14.00">AssistantsModule</text>
</g>
<!-- AppModule -->
<g id="node5" class="node">
<title>AppModule</title>
<polygon fill="#8dd3c7" stroke="black" points="422.66,-331 419.66,-335 398.66,-335 395.66,-331 339.34,-331 339.34,-295 422.66,-295 422.66,-331"/>
<text text-anchor="middle" x="381" y="-308.8" font-family="Times,serif" font-size="14.00">AppModule</text>
</g>
<!-- AssistantsModule&#45;&gt;AppModule -->
<g id="edge1" class="edge">
<title>AssistantsModule&#45;&gt;AppModule</title>
<path fill="none" stroke="black" d="M626,-266.29C626,-288.21 626,-322 626,-322 626,-322 432.84,-322 432.84,-322"/>
<polygon fill="black" stroke="black" points="432.84,-318.5 422.84,-322 432.84,-325.5 432.84,-318.5"/>
</g>
<!-- ConfigureModule -->
<g id="node2" class="node">
<title>ConfigureModule</title>
<polygon fill="#8dd3c7" stroke="black" points="454.31,-190 451.31,-194 430.31,-194 427.31,-190 337.69,-190 337.69,-154 454.31,-154 454.31,-190"/>
<text text-anchor="middle" x="396" y="-167.8" font-family="Times,serif" font-size="14.00">ConfigureModule</text>
</g>
<!-- ConfigureModule&#45;&gt;AssistantsModule -->
<g id="edge6" class="edge">
<title>ConfigureModule&#45;&gt;AssistantsModule</title>
<path fill="none" stroke="black" d="M454.41,-172C510.65,-172 587.23,-172 587.23,-172 587.23,-172 587.23,-219.99 587.23,-219.99"/>
<polygon fill="black" stroke="black" points="583.73,-219.99 587.23,-229.99 590.73,-219.99 583.73,-219.99"/>
</g>
<!-- DatasetsModule -->
<g id="node3" class="node">
<title>DatasetsModule</title>
<polygon fill="#8dd3c7" stroke="black" points="549.47,-266 546.47,-270 525.47,-270 522.47,-266 442.53,-266 442.53,-230 549.47,-230 549.47,-266"/>
<text text-anchor="middle" x="496" y="-243.8" font-family="Times,serif" font-size="14.00">DatasetsModule</text>
</g>
<!-- ConfigureModule&#45;&gt;DatasetsModule -->
<g id="edge12" class="edge">
<title>ConfigureModule&#45;&gt;DatasetsModule</title>
<path fill="none" stroke="black" d="M445.43,-190.01C445.43,-190.01 445.43,-219.85 445.43,-219.85"/>
<polygon fill="black" stroke="black" points="441.93,-219.85 445.43,-229.85 448.93,-219.85 441.93,-219.85"/>
</g>
<!-- FilesModule -->
<g id="node4" class="node">
<title>FilesModule</title>
<polygon fill="#8dd3c7" stroke="black" points="424.27,-266 421.27,-270 400.27,-270 397.27,-266 337.73,-266 337.73,-230 424.27,-230 424.27,-266"/>
<text text-anchor="middle" x="381" y="-243.8" font-family="Times,serif" font-size="14.00">FilesModule</text>
</g>
<!-- ConfigureModule&#45;&gt;FilesModule -->
<g id="edge26" class="edge">
<title>ConfigureModule&#45;&gt;FilesModule</title>
<path fill="none" stroke="black" d="M359.48,-190.01C359.48,-190.01 359.48,-219.85 359.48,-219.85"/>
<polygon fill="black" stroke="black" points="355.98,-219.85 359.48,-229.85 362.98,-219.85 355.98,-219.85"/>
</g>
<!-- ConfigureModule&#45;&gt;AppModule -->
<g id="edge2" class="edge">
<title>ConfigureModule&#45;&gt;AppModule</title>
<path fill="none" stroke="black" d="M433.45,-190.08C433.45,-226.23 433.45,-304 433.45,-304 433.45,-304 432.39,-304 432.39,-304"/>
<polygon fill="black" stroke="black" points="432.84,-300.5 422.84,-304 432.84,-307.5 432.84,-300.5"/>
</g>
<!-- RelationalAssistantPersistenceModule -->
<g id="node7" class="node">
<title>RelationalAssistantPersistenceModule</title>
<polygon fill="#8dd3c7" stroke="black" points="3715.89,-190 3712.89,-194 3691.89,-194 3688.89,-190 3484.11,-190 3484.11,-154 3715.89,-154 3715.89,-190"/>
<text text-anchor="middle" x="3600" y="-167.8" font-family="Times,serif" font-size="14.00">RelationalAssistantPersistenceModule</text>
</g>
<!-- ConfigureModule&#45;&gt;RelationalAssistantPersistenceModule -->
<g id="edge31" class="edge">
<title>ConfigureModule&#45;&gt;RelationalAssistantPersistenceModule</title>
<path fill="none" stroke="black" d="M451.25,-190.17C451.25,-192.45 451.25,-194 451.25,-194 451.25,-194 3528.99,-194 3528.99,-194 3528.99,-194 3528.99,-193.62 3528.99,-193.62"/>
<polygon fill="black" stroke="black" points="3532.49,-200.17 3528.99,-190.17 3525.49,-200.17 3532.49,-200.17"/>
</g>
<!-- RelationalDatasetsPersistenceModule -->
<g id="node8" class="node">
<title>RelationalDatasetsPersistenceModule</title>
<polygon fill="#8dd3c7" stroke="black" points="3960.99,-190 3957.99,-194 3936.99,-194 3933.99,-190 3733.01,-190 3733.01,-154 3960.99,-154 3960.99,-190"/>
<text text-anchor="middle" x="3847" y="-167.8" font-family="Times,serif" font-size="14.00">RelationalDatasetsPersistenceModule</text>
</g>
<!-- ConfigureModule&#45;&gt;RelationalDatasetsPersistenceModule -->
<g id="edge34" class="edge">
<title>ConfigureModule&#45;&gt;RelationalDatasetsPersistenceModule</title>
<path fill="none" stroke="black" d="M448.34,-190.17C448.34,-194.05 448.34,-197 448.34,-197 448.34,-197 3748.84,-197 3748.84,-197 3748.84,-197 3748.84,-196.32 3748.84,-196.32"/>
<polygon fill="black" stroke="black" points="3752.34,-200.17 3748.84,-190.17 3745.34,-200.17 3752.34,-200.17"/>
</g>
<!-- ConfigureAdapter  -->
<g id="node11" class="node">
<title>ConfigureAdapter </title>
<polygon fill="#fb8072" stroke="black" points="145.85,-266 24.15,-266 24.15,-230 145.85,-230 145.85,-266"/>
<text text-anchor="middle" x="85" y="-243.8" font-family="Times,serif" font-size="14.00">ConfigureAdapter </text>
</g>
<!-- ConfigureModule&#45;&gt;ConfigureAdapter  -->
<g id="edge11" class="edge">
<title>ConfigureModule&#45;&gt;ConfigureAdapter </title>
<path fill="none" stroke="black" stroke-dasharray="5,2" d="M337.5,-172C247.41,-172 85,-172 85,-172 85,-172 85,-219.99 85,-219.99"/>
<polygon fill="black" stroke="black" points="81.5,-219.99 85,-229.99 88.5,-219.99 81.5,-219.99"/>
</g>
<!-- DatasetsModule&#45;&gt;AppModule -->
<g id="edge3" class="edge">
<title>DatasetsModule&#45;&gt;AppModule</title>
<path fill="none" stroke="black" d="M496,-266.11C496,-285.34 496,-313 496,-313 496,-313 432.84,-313 432.84,-313"/>
<polygon fill="black" stroke="black" points="432.84,-309.5 422.84,-313 432.84,-316.5 432.84,-309.5"/>
</g>
<!-- FilesModule&#45;&gt;AppModule -->
<g id="edge4" class="edge">
<title>FilesModule&#45;&gt;AppModule</title>
<path fill="none" stroke="black" d="M381,-266.11C381,-266.11 381,-284.99 381,-284.99"/>
<polygon fill="black" stroke="black" points="377.5,-284.99 381,-294.99 384.5,-284.99 377.5,-284.99"/>
</g>
<!-- AppService -->
<g id="node6" class="node">
<title>AppService</title>
<ellipse fill="#fdb462" stroke="black" cx="243" cy="-248" rx="56.74" ry="18"/>
<text text-anchor="middle" x="243" y="-243.8" font-family="Times,serif" font-size="14.00">AppService</text>
</g>
<!-- AppService&#45;&gt;AppModule -->
<g id="edge5" class="edge">
<title>AppService&#45;&gt;AppModule</title>
<path fill="none" stroke="black" d="M243,-266.11C243,-285.34 243,-313 243,-313 243,-313 329.22,-313 329.22,-313"/>
<polygon fill="black" stroke="black" points="329.22,-316.5 339.22,-313 329.22,-309.5 329.22,-316.5"/>
</g>
<!-- RelationalAssistantPersistenceModule&#45;&gt;AssistantsModule -->
<g id="edge7" class="edge">
<title>RelationalAssistantPersistenceModule&#45;&gt;AssistantsModule</title>
<path fill="none" stroke="black" d="M3573.68,-190.25C3573.68,-204.18 3573.68,-221 3573.68,-221 3573.68,-221 645.39,-221 645.39,-221 645.39,-221 645.39,-221.88 645.39,-221.88"/>
<polygon fill="black" stroke="black" points="641.89,-219.84 645.39,-229.84 648.89,-219.84 641.89,-219.84"/>
</g>
<!-- AssistantRepository  -->
<g id="node25" class="node">
<title>AssistantRepository </title>
<polygon fill="#fb8072" stroke="black" points="3431.26,-266 3298.74,-266 3298.74,-230 3431.26,-230 3431.26,-266"/>
<text text-anchor="middle" x="3365" y="-243.8" font-family="Times,serif" font-size="14.00">AssistantRepository </text>
</g>
<!-- RelationalAssistantPersistenceModule&#45;&gt;AssistantRepository  -->
<g id="edge33" class="edge">
<title>RelationalAssistantPersistenceModule&#45;&gt;AssistantRepository </title>
<path fill="none" stroke="black" stroke-dasharray="5,2" d="M3484.07,-172C3472.93,-172 3465.67,-172 3465.67,-172 3465.67,-172 3465.67,-248 3465.67,-248 3465.67,-248 3441.31,-248 3441.31,-248"/>
<polygon fill="black" stroke="black" points="3441.31,-244.5 3431.31,-248 3441.31,-251.5 3441.31,-244.5"/>
</g>
<!-- RelationalDatasetsPersistenceModule&#45;&gt;AssistantsModule -->
<g id="edge8" class="edge">
<title>RelationalDatasetsPersistenceModule&#45;&gt;AssistantsModule</title>
<path fill="none" stroke="black" d="M3780,-190.19C3780,-205.18 3780,-224 3780,-224 3780,-224 664.77,-224 664.77,-224 664.77,-224 664.77,-224.58 664.77,-224.58"/>
<polygon fill="black" stroke="black" points="661.27,-219.81 664.77,-229.81 668.27,-219.81 661.27,-219.81"/>
</g>
<!-- RelationalDatasetsPersistenceModule&#45;&gt;DatasetsModule -->
<g id="edge15" class="edge">
<title>RelationalDatasetsPersistenceModule&#45;&gt;DatasetsModule</title>
<path fill="none" stroke="black" d="M3764.42,-190.13C3764.42,-200.71 3764.42,-212 3764.42,-212 3764.42,-212 542.68,-212 542.68,-212 542.68,-212 542.68,-219.58 542.68,-219.58"/>
<polygon fill="black" stroke="black" points="539.18,-219.58 542.68,-229.58 546.18,-219.58 539.18,-219.58"/>
</g>
<!-- DatasetProcessRuleRepository  -->
<g id="node26" class="node">
<title>DatasetProcessRuleRepository </title>
<polygon fill="#fb8072" stroke="black" points="3663.12,-266 3470.88,-266 3470.88,-230 3663.12,-230 3663.12,-266"/>
<text text-anchor="middle" x="3567" y="-243.8" font-family="Times,serif" font-size="14.00">DatasetProcessRuleRepository </text>
</g>
<!-- RelationalDatasetsPersistenceModule&#45;&gt;DatasetProcessRuleRepository  -->
<g id="edge36" class="edge">
<title>RelationalDatasetsPersistenceModule&#45;&gt;DatasetProcessRuleRepository </title>
<path fill="none" stroke="black" stroke-dasharray="5,2" d="M3795.58,-190.01C3795.58,-206.05 3795.58,-227 3795.58,-227 3795.58,-227 3618.37,-227 3618.37,-227 3618.37,-227 3618.37,-227.29 3618.37,-227.29"/>
<polygon fill="black" stroke="black" points="3614.87,-219.92 3618.37,-229.92 3621.87,-219.92 3614.87,-219.92"/>
</g>
<!-- DatasetRepository  -->
<g id="node27" class="node">
<title>DatasetRepository </title>
<polygon fill="#fb8072" stroke="black" points="4331.41,-266 4208.59,-266 4208.59,-230 4331.41,-230 4331.41,-266"/>
<text text-anchor="middle" x="4270" y="-243.8" font-family="Times,serif" font-size="14.00">DatasetRepository </text>
</g>
<!-- RelationalDatasetsPersistenceModule&#45;&gt;DatasetRepository  -->
<g id="edge37" class="edge">
<title>RelationalDatasetsPersistenceModule&#45;&gt;DatasetRepository </title>
<path fill="none" stroke="black" stroke-dasharray="5,2" d="M3960.91,-166C4086.2,-166 4270,-166 4270,-166 4270,-166 4270,-219.8 4270,-219.8"/>
<polygon fill="black" stroke="black" points="4266.5,-219.8 4270,-229.8 4273.5,-219.8 4266.5,-219.8"/>
</g>
<!-- DocumentRepository  -->
<g id="node28" class="node">
<title>DocumentRepository </title>
<polygon fill="#fb8072" stroke="black" points="4190.75,-266 4051.25,-266 4051.25,-230 4190.75,-230 4190.75,-266"/>
<text text-anchor="middle" x="4121" y="-243.8" font-family="Times,serif" font-size="14.00">DocumentRepository </text>
</g>
<!-- RelationalDatasetsPersistenceModule&#45;&gt;DocumentRepository  -->
<g id="edge38" class="edge">
<title>RelationalDatasetsPersistenceModule&#45;&gt;DocumentRepository </title>
<path fill="none" stroke="black" stroke-dasharray="5,2" d="M3960.82,-178C4036.1,-178 4121,-178 4121,-178 4121,-178 4121,-219.97 4121,-219.97"/>
<polygon fill="black" stroke="black" points="4117.5,-219.97 4121,-229.97 4124.5,-219.97 4117.5,-219.97"/>
</g>
<!-- DocumentSegmentRepository  -->
<g id="node29" class="node">
<title>DocumentSegmentRepository </title>
<polygon fill="#fb8072" stroke="black" points="4033.25,-266 3844.75,-266 3844.75,-230 4033.25,-230 4033.25,-266"/>
<text text-anchor="middle" x="3939" y="-243.8" font-family="Times,serif" font-size="14.00">DocumentSegmentRepository </text>
</g>
<!-- RelationalDatasetsPersistenceModule&#45;&gt;DocumentSegmentRepository  -->
<g id="edge39" class="edge">
<title>RelationalDatasetsPersistenceModule&#45;&gt;DocumentSegmentRepository </title>
<path fill="none" stroke="black" stroke-dasharray="5,2" d="M3902.81,-190.01C3902.81,-190.01 3902.81,-219.85 3902.81,-219.85"/>
<polygon fill="black" stroke="black" points="3899.31,-219.85 3902.81,-229.85 3906.31,-219.85 3899.31,-219.85"/>
</g>
<!-- EmbeddingRepository  -->
<g id="node30" class="node">
<title>EmbeddingRepository </title>
<polygon fill="#fb8072" stroke="black" points="3826.99,-266 3681.01,-266 3681.01,-230 3826.99,-230 3826.99,-266"/>
<text text-anchor="middle" x="3754" y="-243.8" font-family="Times,serif" font-size="14.00">EmbeddingRepository </text>
</g>
<!-- RelationalDatasetsPersistenceModule&#45;&gt;EmbeddingRepository  -->
<g id="edge40" class="edge">
<title>RelationalDatasetsPersistenceModule&#45;&gt;EmbeddingRepository </title>
<path fill="none" stroke="black" stroke-dasharray="5,2" d="M3811.16,-190.01C3811.16,-190.01 3811.16,-219.85 3811.16,-219.85"/>
<polygon fill="black" stroke="black" points="3807.66,-219.85 3811.16,-229.85 3814.66,-219.85 3807.66,-219.85"/>
</g>
<!-- AssistantService -->
<g id="node9" class="node">
<title>AssistantService</title>
<ellipse fill="#fdb462" stroke="black" cx="3385" cy="-172" rx="75.29" ry="18"/>
<text text-anchor="middle" x="3385" y="-167.8" font-family="Times,serif" font-size="14.00">AssistantService</text>
</g>
<!-- AssistantService&#45;&gt;AssistantsModule -->
<g id="edge9" class="edge">
<title>AssistantService&#45;&gt;AssistantsModule</title>
<path fill="none" stroke="black" d="M3370.37,-189.92C3370.37,-202.83 3370.37,-218 3370.37,-218 3370.37,-218 626,-218 626,-218 626,-218 626,-219.86 626,-219.86"/>
<polygon fill="black" stroke="black" points="622.5,-219.86 626,-229.86 629.5,-219.86 622.5,-219.86"/>
</g>
<!-- RetrievalService -->
<g id="node10" class="node">
<title>RetrievalService</title>
<ellipse fill="#fdb462" stroke="black" cx="3216" cy="-172" rx="75.27" ry="18"/>
<text text-anchor="middle" x="3216" y="-167.8" font-family="Times,serif" font-size="14.00">RetrievalService</text>
</g>
<!-- RetrievalService&#45;&gt;AssistantsModule -->
<g id="edge10" class="edge">
<title>RetrievalService&#45;&gt;AssistantsModule</title>
<path fill="none" stroke="black" d="M3241.13,-188.99C3241.13,-201.01 3241.13,-215 3241.13,-215 3241.13,-215 606.61,-215 606.61,-215 606.61,-215 606.61,-219.96 606.61,-219.96"/>
<polygon fill="black" stroke="black" points="603.11,-219.96 606.61,-229.96 610.11,-219.96 603.11,-219.96"/>
</g>
<!-- RetrievalService&#45;&gt;DatasetsModule -->
<g id="edge24" class="edge">
<title>RetrievalService&#45;&gt;DatasetsModule</title>
<path fill="none" stroke="black" d="M3190.87,-189.2C3190.87,-198.86 3190.87,-209 3190.87,-209 3190.87,-209 535.87,-209 535.87,-209 535.87,-209 535.87,-219.87 535.87,-219.87"/>
<polygon fill="black" stroke="black" points="532.37,-219.87 535.87,-229.87 539.37,-219.87 532.37,-219.87"/>
</g>
<!-- PrismaModule -->
<g id="node12" class="node">
<title>PrismaModule</title>
<polygon fill="#8dd3c7" stroke="black" points="3000.43,-122 2997.43,-126 2976.43,-126 2973.43,-122 2901.57,-122 2901.57,-86 3000.43,-86 3000.43,-122"/>
<text text-anchor="middle" x="2951" y="-99.8" font-family="Times,serif" font-size="14.00">PrismaModule</text>
</g>
<!-- PrismaModule&#45;&gt;DatasetsModule -->
<g id="edge13" class="edge">
<title>PrismaModule&#45;&gt;DatasetsModule</title>
<path fill="none" stroke="black" d="M2926.39,-122.04C2926.39,-134.56 2926.39,-149 2926.39,-149 2926.39,-149 522.25,-149 522.25,-149 522.25,-149 522.25,-219.84 522.25,-219.84"/>
<polygon fill="black" stroke="black" points="518.75,-219.84 522.25,-229.84 525.75,-219.84 518.75,-219.84"/>
</g>
<!-- PrismaModule&#45;&gt;RelationalAssistantPersistenceModule -->
<g id="edge32" class="edge">
<title>PrismaModule&#45;&gt;RelationalAssistantPersistenceModule</title>
<path fill="none" stroke="black" d="M3000.31,-110C3151.77,-110 3600,-110 3600,-110 3600,-110 3600,-143.73 3600,-143.73"/>
<polygon fill="black" stroke="black" points="3596.5,-143.73 3600,-153.73 3603.5,-143.73 3596.5,-143.73"/>
</g>
<!-- PrismaModule&#45;&gt;RelationalDatasetsPersistenceModule -->
<g id="edge35" class="edge">
<title>PrismaModule&#45;&gt;RelationalDatasetsPersistenceModule</title>
<path fill="none" stroke="black" d="M3000.45,-98C3188.29,-98 3847,-98 3847,-98 3847,-98 3847,-143.71 3847,-143.71"/>
<polygon fill="black" stroke="black" points="3843.5,-143.71 3847,-153.71 3850.5,-143.71 3843.5,-143.71"/>
</g>
<!-- RelationaLeekFilesPersistenceModule -->
<g id="node13" class="node">
<title>RelationaLeekFilesPersistenceModule</title>
<polygon fill="#8dd3c7" stroke="black" points="3100.88,-190 3097.88,-194 3076.88,-194 3073.88,-190 2869.12,-190 2869.12,-154 3100.88,-154 3100.88,-190"/>
<text text-anchor="middle" x="2985" y="-167.8" font-family="Times,serif" font-size="14.00">RelationaLeekFilesPersistenceModule</text>
</g>
<!-- PrismaModule&#45;&gt;RelationaLeekFilesPersistenceModule -->
<g id="edge41" class="edge">
<title>PrismaModule&#45;&gt;RelationaLeekFilesPersistenceModule</title>
<path fill="none" stroke="black" d="M2975.61,-122.22C2975.61,-122.22 2975.61,-143.73 2975.61,-143.73"/>
<polygon fill="black" stroke="black" points="2972.11,-143.73 2975.61,-153.73 2979.11,-143.73 2972.11,-143.73"/>
</g>
<!-- PrismaService  -->
<g id="node23" class="node">
<title>PrismaService </title>
<polygon fill="#fb8072" stroke="black" points="1078.36,-190 977.64,-190 977.64,-154 1078.36,-154 1078.36,-190"/>
<text text-anchor="middle" x="1028" y="-167.8" font-family="Times,serif" font-size="14.00">PrismaService </text>
</g>
<!-- PrismaModule&#45;&gt;PrismaService  -->
<g id="edge29" class="edge">
<title>PrismaModule&#45;&gt;PrismaService </title>
<path fill="none" stroke="black" stroke-dasharray="5,2" d="M2901.54,-104C2878.9,-104 2857.04,-104 2857.04,-104 2857.04,-104 2857.04,-172 2857.04,-172 2857.04,-172 1088.35,-172 1088.35,-172"/>
<polygon fill="black" stroke="black" points="1088.35,-168.5 1078.35,-172 1088.35,-175.5 1088.35,-168.5"/>
</g>
<!-- RelationaLeekFilesPersistenceModule&#45;&gt;DatasetsModule -->
<g id="edge14" class="edge">
<title>RelationaLeekFilesPersistenceModule&#45;&gt;DatasetsModule</title>
<path fill="none" stroke="black" d="M2910.38,-190.19C2910.38,-198.28 2910.38,-206 2910.38,-206 2910.38,-206 529.06,-206 529.06,-206 529.06,-206 529.06,-219.94 529.06,-219.94"/>
<polygon fill="black" stroke="black" points="525.56,-219.94 529.06,-229.94 532.56,-219.94 525.56,-219.94"/>
</g>
<!-- RelationaLeekFilesPersistenceModule&#45;&gt;FilesModule -->
<g id="edge27" class="edge">
<title>RelationaLeekFilesPersistenceModule&#45;&gt;FilesModule</title>
<path fill="none" stroke="black" d="M2889.85,-190.03C2889.85,-196.85 2889.85,-203 2889.85,-203 2889.85,-203 402.75,-203 402.75,-203 402.75,-203 402.75,-219.96 402.75,-219.96"/>
<polygon fill="black" stroke="black" points="399.25,-219.96 402.75,-229.96 406.25,-219.96 399.25,-219.96"/>
</g>
<!-- FilesRepository  -->
<g id="node31" class="node">
<title>FilesRepository </title>
<polygon fill="#fb8072" stroke="black" points="3039.16,-266 2930.84,-266 2930.84,-230 3039.16,-230 3039.16,-266"/>
<text text-anchor="middle" x="2985" y="-243.8" font-family="Times,serif" font-size="14.00">FilesRepository </text>
</g>
<!-- RelationaLeekFilesPersistenceModule&#45;&gt;FilesRepository  -->
<g id="edge42" class="edge">
<title>RelationaLeekFilesPersistenceModule&#45;&gt;FilesRepository </title>
<path fill="none" stroke="black" stroke-dasharray="5,2" d="M2985,-190.01C2985,-190.01 2985,-219.85 2985,-219.85"/>
<polygon fill="black" stroke="black" points="2981.5,-219.85 2985,-229.85 2988.5,-219.85 2981.5,-219.85"/>
</g>
<!-- DatasetService -->
<g id="node14" class="node">
<title>DatasetService</title>
<ellipse fill="#fdb462" stroke="black" cx="1433" cy="-104" rx="68.89" ry="18"/>
<text text-anchor="middle" x="1433" y="-99.8" font-family="Times,serif" font-size="14.00">DatasetService</text>
</g>
<!-- DatasetService&#45;&gt;DatasetsModule -->
<g id="edge16" class="edge">
<title>DatasetService&#45;&gt;DatasetsModule</title>
<path fill="none" stroke="black" d="M1433,-122.08C1433,-123.85 1433,-125 1433,-125 1433,-125 467.77,-125 467.77,-125 467.77,-125 467.77,-219.85 467.77,-219.85"/>
<polygon fill="black" stroke="black" points="464.27,-219.85 467.77,-229.85 471.27,-219.85 464.27,-219.85"/>
</g>
<!-- DocumentSegmentService -->
<g id="node15" class="node">
<title>DocumentSegmentService</title>
<ellipse fill="#fdb462" stroke="black" cx="1232" cy="-104" rx="114.02" ry="18"/>
<text text-anchor="middle" x="1232" y="-99.8" font-family="Times,serif" font-size="14.00">DocumentSegmentService</text>
</g>
<!-- DocumentSegmentService&#45;&gt;DatasetsModule -->
<g id="edge17" class="edge">
<title>DocumentSegmentService&#45;&gt;DatasetsModule</title>
<path fill="none" stroke="black" d="M1117.82,-104C903.18,-104 460.97,-104 460.97,-104 460.97,-104 460.97,-219.76 460.97,-219.76"/>
<polygon fill="black" stroke="black" points="457.47,-219.76 460.97,-229.76 464.47,-219.76 457.47,-219.76"/>
</g>
<!-- DocumentService -->
<g id="node16" class="node">
<title>DocumentService</title>
<ellipse fill="#fdb462" stroke="black" cx="1600" cy="-104" rx="80.44" ry="18"/>
<text text-anchor="middle" x="1600" y="-99.8" font-family="Times,serif" font-size="14.00">DocumentService</text>
</g>
<!-- DocumentService&#45;&gt;DatasetsModule -->
<g id="edge18" class="edge">
<title>DocumentService&#45;&gt;DatasetsModule</title>
<path fill="none" stroke="black" d="M1600,-122.19C1600,-125.54 1600,-128 1600,-128 1600,-128 474.58,-128 474.58,-128 474.58,-128 474.58,-219.77 474.58,-219.77"/>
<polygon fill="black" stroke="black" points="471.08,-219.77 474.58,-229.77 478.08,-219.77 471.08,-219.77"/>
</g>
<!-- FilesService -->
<g id="node17" class="node">
<title>FilesService</title>
<ellipse fill="#fdb462" stroke="black" cx="1757" cy="-104" rx="58.54" ry="18"/>
<text text-anchor="middle" x="1757" y="-99.8" font-family="Times,serif" font-size="14.00">FilesService</text>
</g>
<!-- FilesService&#45;&gt;DatasetsModule -->
<g id="edge19" class="edge">
<title>FilesService&#45;&gt;DatasetsModule</title>
<path fill="none" stroke="black" d="M1737.41,-121.25C1737.41,-126.54 1737.41,-131 1737.41,-131 1737.41,-131 481.39,-131 481.39,-131 481.39,-131 481.39,-219.98 481.39,-219.98"/>
<polygon fill="black" stroke="black" points="477.89,-219.98 481.39,-229.98 484.89,-219.98 477.89,-219.98"/>
</g>
<!-- FilesService&#45;&gt;FilesModule -->
<g id="edge28" class="edge">
<title>FilesService&#45;&gt;FilesModule</title>
<path fill="none" stroke="black" d="M1776.59,-121.16C1776.59,-148.78 1776.59,-200 1776.59,-200 1776.59,-200 381.12,-200 381.12,-200 381.12,-200 381.12,-219.85 381.12,-219.85"/>
<polygon fill="black" stroke="black" points="377.62,-219.85 381.12,-229.85 384.62,-219.85 377.62,-219.85"/>
</g>
<!-- IndexingService -->
<g id="node18" class="node">
<title>IndexingService</title>
<ellipse fill="#fdb462" stroke="black" cx="2145" cy="-104" rx="74.14" ry="18"/>
<text text-anchor="middle" x="2145" y="-99.8" font-family="Times,serif" font-size="14.00">IndexingService</text>
</g>
<!-- IndexingService&#45;&gt;DatasetsModule -->
<g id="edge20" class="edge">
<title>IndexingService&#45;&gt;DatasetsModule</title>
<path fill="none" stroke="black" d="M2145,-122.04C2145,-129.75 2145,-137 2145,-137 2145,-137 495.01,-137 495.01,-137 495.01,-137 495.01,-219.67 495.01,-219.67"/>
<polygon fill="black" stroke="black" points="491.51,-219.67 495.01,-229.67 498.51,-219.67 491.51,-219.67"/>
</g>
<!-- JiebaKeywordService -->
<g id="node19" class="node">
<title>JiebaKeywordService</title>
<ellipse fill="#fdb462" stroke="black" cx="2749" cy="-104" rx="95.53" ry="18"/>
<text text-anchor="middle" x="2749" y="-99.8" font-family="Times,serif" font-size="14.00">JiebaKeywordService</text>
</g>
<!-- JiebaKeywordService&#45;&gt;DatasetsModule -->
<g id="edge21" class="edge">
<title>JiebaKeywordService&#45;&gt;DatasetsModule</title>
<path fill="none" stroke="black" d="M2749,-122.06C2749,-133.44 2749,-146 2749,-146 2749,-146 515.44,-146 515.44,-146 515.44,-146 515.44,-219.76 515.44,-219.76"/>
<polygon fill="black" stroke="black" points="511.94,-219.76 515.44,-229.76 518.94,-219.76 511.94,-219.76"/>
</g>
<!-- LLMGeneratorService -->
<g id="node20" class="node">
<title>LLMGeneratorService</title>
<ellipse fill="#fdb462" stroke="black" cx="2536" cy="-104" rx="98.95" ry="18"/>
<text text-anchor="middle" x="2536" y="-99.8" font-family="Times,serif" font-size="14.00">LLMGeneratorService</text>
</g>
<!-- LLMGeneratorService&#45;&gt;DatasetsModule -->
<g id="edge22" class="edge">
<title>LLMGeneratorService&#45;&gt;DatasetsModule</title>
<path fill="none" stroke="black" d="M2536,-122.13C2536,-132.31 2536,-143 2536,-143 2536,-143 508.63,-143 508.63,-143 508.63,-143 508.63,-219.71 508.63,-219.71"/>
<polygon fill="black" stroke="black" points="505.13,-219.71 508.63,-229.71 512.13,-219.71 505.13,-219.71"/>
</g>
<!-- ProcessDocumentService -->
<g id="node21" class="node">
<title>ProcessDocumentService</title>
<ellipse fill="#fdb462" stroke="black" cx="1943" cy="-104" rx="109.93" ry="18"/>
<text text-anchor="middle" x="1943" y="-99.8" font-family="Times,serif" font-size="14.00">ProcessDocumentService</text>
</g>
<!-- ProcessDocumentService&#45;&gt;DatasetsModule -->
<g id="edge23" class="edge">
<title>ProcessDocumentService&#45;&gt;DatasetsModule</title>
<path fill="none" stroke="black" d="M1943,-122.14C1943,-128.46 1943,-134 1943,-134 1943,-134 488.2,-134 488.2,-134 488.2,-134 488.2,-219.94 488.2,-219.94"/>
<polygon fill="black" stroke="black" points="484.7,-219.94 488.2,-229.94 491.7,-219.94 484.7,-219.94"/>
</g>
<!-- TransactionManager -->
<g id="node22" class="node">
<title>TransactionManager</title>
<ellipse fill="#fdb462" stroke="black" cx="2328" cy="-104" rx="90.87" ry="18"/>
<text text-anchor="middle" x="2328" y="-99.8" font-family="Times,serif" font-size="14.00">TransactionManager</text>
</g>
<!-- TransactionManager&#45;&gt;DatasetsModule -->
<g id="edge25" class="edge">
<title>TransactionManager&#45;&gt;DatasetsModule</title>
<path fill="none" stroke="black" d="M2328,-122C2328,-131 2328,-140 2328,-140 2328,-140 501.82,-140 501.82,-140 501.82,-140 501.82,-219.68 501.82,-219.68"/>
<polygon fill="black" stroke="black" points="498.32,-219.68 501.82,-229.68 505.32,-219.68 498.32,-219.68"/>
</g>
<!-- PrismaService -->
<g id="node24" class="node">
<title>PrismaService</title>
<ellipse fill="#fdb462" stroke="black" cx="887" cy="-172" rx="66.63" ry="18"/>
<text text-anchor="middle" x="887" y="-167.8" font-family="Times,serif" font-size="14.00">PrismaService</text>
</g>
<!-- PrismaService&#45;&gt;PrismaModule -->
<g id="edge30" class="edge">
<title>PrismaService&#45;&gt;PrismaModule</title>
<path fill="none" stroke="black" d="M887,-153.85C887,-152.7 887,-152 887,-152 887,-152 2951,-152 2951,-152 2951,-152 2951,-132.15 2951,-132.15"/>
<polygon fill="black" stroke="black" points="2954.5,-132.15 2951,-122.15 2947.5,-132.15 2954.5,-132.15"/>
</g>
</g>
</svg>
